<?xml version="1.0" encoding="UTF-8"?>
<svg id="Ebene_2" data-name="Ebene 2" xmlns="http://www.w3.org/2000/svg" version="1.1" viewBox="0 0 511.1 511.8">
  <defs>
    <style>
      .cls-1 {
        fill: #fff7df;
        stroke-width: 0px;
      }
    </style>
  </defs>
  <path class="cls-1" d="M344.2,511.8h-178.9c-1.3-2-3.3-.9-5-1-17.1-.8-34.2-1.9-51-6-42.3-10.2-73.7-34.2-92.5-73.8-10.6-22.5-14.4-46.6-15.2-71.2C-.5,291.3-.6,222.6,1.6,154c.5-16.6,2.3-33.2,6.7-49.3C20.3,61.4,46.5,30.5,88.4,13.5,111.8,4.1,136.4,1.8,161.3,1c1.6,0,3.7,1,5-1h176.9c1.2,1.9,3,.9,4.5.9,15.1.7,30.2,1.5,45.2,3.9,63,10.3,107.5,56.8,115.4,120.2.8,6.6.5,13.4,2.8,19.8v218.9c-1.5.6-.9,2-1,3-.7,10.3-1.8,20.5-4,30.6-11.5,53-42.4,88.6-94.5,105.1-20.3,6.4-41.4,7.7-62.5,8.4-1.6,0-3.6-1-5,.9h0ZM256.1,465.8c13.5,0,27,.1,40.5,0,29.1-.4,58.4.6,87.3-4,39.2-6.3,65.2-28.1,75.8-67,4.4-16,4.9-32.5,5.4-49,1.6-51.5,1.2-102.9.6-154.4-.2-20.6-.5-41.3-3.5-61.8-5.8-40.1-30.5-67.8-69.2-77.2-18.4-4.5-37.3-4.8-56.1-5.1-44.8-.9-89.6-.8-134.4-.4-25.6.3-51.4-.5-76.7,4.3-38.2,7.2-63.3,29.2-73.1,67.4-4.5,17.6-4.8,35.6-5.3,53.6-1.1,41.1-1.1,82.3-.7,123.5.3,28.8-.4,57.7,3.7,86.3,3.8,27.2,15.5,50.1,39.1,65.6,17,11.2,36.4,15.1,56.3,16.4,36.8,2.4,73.6,1.9,110.4,2h0Z"/>
  <path class="cls-1" d="M124.6,256.1c-.3-72.3,58.7-131.4,131.4-131.6,72.5-.2,131.4,58.5,131.6,131.3.2,72.4-58.7,131.5-131.3,131.6-72.4.1-131.4-58.7-131.6-131.4h0ZM171,255.8c-.1,47.1,37.7,85.1,84.8,85.3,47.4.2,85.5-37.7,85.6-85,.1-47.1-37.6-85.1-84.8-85.3-47.3-.2-85.5,37.7-85.6,85h0Z"/>
  <path class="cls-1" d="M393.4,88.7c17.1.3,30.3,14.1,30,31.3-.4,17-14.2,30.3-31.4,29.9-16.8-.3-30.2-14.5-29.8-31.6.4-16.7,14.3-29.9,31.2-29.6h0Z"/>
</svg>